# xmcd CD database file
# Copyright (C) 1993-1996 Ti Kan
#
# Track frame offsets:
# 150
# 12787
# 24685
# 36707
# 50597
# 62225
# 76160
# 89030
# 103602
# 116902
# 130422
# 145102
# 159775
# 173512
# 186005
# 201080
# 213650
# 228317
# 241210
# 252300
#
# Disc length: 3537 seconds
#
# Revision: 0
# Processed by: cddbd v1.4b41PL1 Copyright (c) Steve Scherf et al.
# Submitted via: inCDius 1.1b5
#
DISCID=190dcf14
DTITLE=Ernest Tubb - Let's Say Goodbye Like We Said Hello - Disc1
DYEAR=1900
DGENRE=
TTITLE0=You Hit The Nail Right On The Head
TTITLE1=Two Wrongs Don't Make A Right
TTITLE2=That Wild And Wicked Look In Your Eye
TTITLE3=A Lonely Heart Knows
TTITLE4=Don't Your Face Look Red
TTITLE5=Answer To Rainbow At Midnight
TTITLE6=Watching My Past Go By
TTITLE7=A Woman Has Wrecked Many A Good Man
TTITLE8=Headin' Down The Wrong Highway
TTITLE9=Let's Say Goodbye Like We Said Hello
TTITLE10=Takin' It Easy Here
TTITLE11=Seaman's Blues
TTITLE12=How Can I Forget You
TTITLE13=Yesterday's Winner Is A Loser Today
TTITLE14=I'm With A Crowd But So Alone
TTITLE15=Waiting For A Train
TTITLE16=Forever Is Ending Today
TTITLE17=Have You Ever Been Lonely
TTITLE18=Till The End Of The World
TTITLE19=Daddy, When Is Mommy Coming Home
EXTD=
EXTT0=
EXTT1=
EXTT2=
EXTT3=
EXTT4=
EXTT5=
EXTT6=
EXTT7=
EXTT8=
EXTT9=
EXTT10=
EXTT11=
EXTT12=
EXTT13=
EXTT14=
EXTT15=
EXTT16=
EXTT17=
EXTT18=
EXTT19=
PLAYORDER=
